<svg width="72" height="15" viewBox="0 0 72 15" fill="none" xmlns="http://www.w3.org/2000/svg">
<path d="M0.406006 14.461V0.580017H5.68295C8.89673 0.580017 10.7615 1.92846 10.7615 4.24857C10.7615 5.99361 9.72993 6.98512 8.14288 7.32223C9.98783 7.56019 11.2575 8.53186 11.2575 10.5149C11.2575 12.9341 9.35301 14.461 5.94085 14.461H0.406006ZM5.7623 2.91996H3.38173V6.29106H5.7623C7.03195 6.29106 7.78579 5.63667 7.78579 4.60551C7.78579 3.57435 7.05178 2.91996 5.7623 2.91996ZM5.96069 8.59135H3.38173V12.1013H5.96069C7.38903 12.1013 8.2024 11.4469 8.2024 10.376C8.2024 9.24574 7.36919 8.59135 5.96069 8.59135Z" fill="#222222"/>
<path d="M17.7257 14.58C14.3334 14.58 12.2901 12.5375 12.2901 9.38455C12.2901 6.21174 14.3731 4.14942 17.5274 4.14942C20.5824 4.14942 22.6456 6.0531 22.6853 9.04744C22.6853 9.34489 22.6654 9.682 22.6059 9.99928H15.2063V10.1381C15.2658 11.5857 16.1982 12.4582 17.6067 12.4582C18.7375 12.4582 19.531 11.9625 19.7691 11.0106H22.5266C22.2092 12.9936 20.4436 14.58 17.7257 14.58ZM15.2658 8.17492H19.8683C19.6699 6.92563 18.8168 6.23158 17.5472 6.23158C16.3371 6.23158 15.4245 6.96529 15.2658 8.17492Z" fill="#222222"/>
<path d="M22.8451 2.16642V0.580017H33.5775V2.16642H29.0742V14.461H27.3483V2.16642H22.8451Z" fill="#222222"/>
<path d="M41.7674 12.9738H42.2832V14.461H41.3905C40.0415 14.461 39.5852 13.886 39.5654 12.8945C38.9305 13.8066 37.9188 14.58 36.173 14.58C33.9512 14.58 32.4435 13.4695 32.4435 11.6253C32.4435 9.60268 33.852 8.47237 36.5103 8.47237H39.486V7.77832C39.486 6.46954 38.5536 5.67633 36.9666 5.67633C35.5382 5.67633 34.586 6.35056 34.3876 7.38172H32.7609C32.9989 5.39871 34.6058 4.22874 37.0459 4.22874C39.6249 4.22874 41.1127 5.51769 41.1127 7.87747V12.2996C41.1127 12.835 41.3111 12.9738 41.7674 12.9738ZM39.486 10.3364V9.84064H36.3516C34.9034 9.84064 34.09 10.376 34.09 11.5262C34.09 12.5177 34.9431 13.1919 36.2921 13.1919C38.3156 13.1919 39.486 12.0219 39.486 10.3364Z" fill="#222222"/>
<path d="M42.7402 14.461V0.580017H44.367V14.461H42.7402Z" fill="#222222"/>
<path d="M50.4639 14.58C47.4287 14.58 45.4449 12.4979 45.4449 9.40438C45.4449 6.33072 47.389 4.22874 50.2457 4.22874C53.1024 4.22874 54.9672 6.03327 55.0466 9.02761C55.0466 9.24574 55.0267 9.4837 55.0069 9.72166H47.151V9.86047C47.2105 11.784 48.4206 13.1324 50.3449 13.1324C51.7733 13.1324 52.8842 12.3789 53.2214 11.0701H54.868C54.4712 13.0928 52.8048 14.58 50.4639 14.58ZM47.2502 8.37322H53.3008C53.1421 6.62818 51.9518 5.6565 50.2656 5.6565C48.7777 5.6565 47.4089 6.72733 47.2502 8.37322Z" fill="#222222"/>
<path d="M61.0688 4.22874C63.3502 4.22874 65.1555 5.47803 65.1555 8.82931V14.461H63.5288V8.92846C63.5288 6.82648 62.5567 5.71599 60.7911 5.71599C58.8866 5.71599 57.736 7.12393 57.736 9.40438V14.461H56.1093V4.34772H57.5178L57.736 5.71599C58.3312 4.94262 59.3627 4.22874 61.0688 4.22874Z" fill="#222222"/>
<path d="M67.1898 11.8236V5.83497H65.3647V4.34772H67.1898V1.51203H68.8166V4.34772H71.4352V5.83497H68.8166V11.8038C68.8166 12.6565 69.1141 12.9738 69.987 12.9738H71.5939V14.461H69.8283C67.8842 14.461 67.1898 13.6083 67.1898 11.8236Z" fill="#222222"/>
</svg>
